<?xml version="1.0" encoding="UTF-8"?>
<svg xmlns="http://www.w3.org/2000/svg" version="1.1" viewBox="0 0 518.1 94.2">
  <defs>
    <style>
      .cls-1 {
        fill: #e8dbd4;
      }
    </style>
  </defs>
  <!-- Generator: Adobe Illustrator 28.7.1, SVG Export Plug-In . SVG Version: 1.2.0 Build 142)  -->
  <g>
    <g id="Layer_1">
      <path class="cls-1" d="M72.6,75.6c.6.5.3,1.4-.5,1.4h-7.1c-3.7,0-7.2-1.8-9.5-4.8s0,0,0-.1l-11.5-21.9s0,0,0-.1c-2.6-3.4-7.5-3.9-10.7-1-1.5,1.4-2.4,3.4-2.4,5.4v2.2c0,3.3.9,6.1,1.6,8s-.4,2.4-1.6,2.4h-10.4c-1.2,0-2-1.2-1.6-2.4.8-1.9,1.6-4.7,1.6-8v-25.8c0-4.7-1.2-7.6-2-9.1s.1-1.2.7-1.2h12.9c.6,0,1,.7.7,1.2-.8,1.5-2,4.4-2,9.1v14.4c0,.7.8,1.1,1.3.6l20-17.9c2.1-1.9,3.8-4.3,5.1-6.9s.4-.5.7-.5h6.1c.8,0,1.1,1.1.4,1.5-3.2,1.9-6.1,4.1-8.8,6.6l-5.2,4.7-3.7,3.4-1,.9c-.5.4-.3,1.2.4,1.4,1.8.4,3.4,1.4,4.5,2.9s0,0,0,.1l14.6,26.1s0,0,0,0c2,2.7,4.4,5.2,7.1,7.2Z"/>
      <path class="cls-1" d="M90.3,66.8l.3.3h-15.9l.3-.3c.7-1,2.5-4.1,2.5-10v-25.8c0-4.7-1.2-7.6-2-9.1s.1-1.2.7-1.2h12.9c.6,0,1,.7.7,1.2-.8,1.5-2,4.4-2,9.1v25.8c0,5.9,1.8,9,2.5,10Z"/>
      <path class="cls-1" d="M142.7,20.8c.6,0,1,.7.7,1.2-.8,1.5-2,4.4-2,9.1v35.2c0,.4-.4.8-.8.8h-4.7c-1.6,0-3.1-.7-4.1-2l-29.4-38c-.5-.6-1.4-.3-1.4.5v29.3c0,5.9,1.8,9,2.5,10l.3.3h-8.5l.3-.3c.7-1,2.5-4.1,2.5-10v-25.8c0-4.7-1.2-7.6-2-9.1s.1-1.2.7-1.2h11.3c1.6,0,3.1.7,4.1,2l24.9,32.3c.5.6,1.4.3,1.4-.5v-23.5c0-4.7-1.2-7.6-2-9.1s.1-1.2.7-1.2h5.5Z"/>
      <path class="cls-1" d="M170.3,39.8c11.1,1.8,20.9,5,20.9,14.2s-10.9,14.3-21.7,14.3-15.9-3.4-19.3-9c-1.7-2.7.5-6.2,3.6-6.2h4.1c.4,0,.8.4.8.8.3,9.1,6.2,11.6,11,11.6s11.3-2.6,11.3-11.6-6.8-5.2-12.6-6c-11.1-1.8-19.4-5.5-19.4-14.2s12-13.8,20.4-14c6.3,0,16.3,2.8,19.4,9.9,1.1,2.6-1,5.5-3.8,5.5h-4.4c-.4,0-.8-.4-.8-.8-.3-9.3-5.3-11.8-10.2-11.8s-10.3,2.6-10.3,11.1,6.9,5.5,11.1,6.1h0Z"/>
      <path class="cls-1" d="M267.5,20.7c.6,0,1,.7.7,1.3-2.7,4.1-4.8,8.6-6.2,13.4l-9.2,31.1c-.1.3-.4.6-.8.6h-9.6c-.4,0-.7-.2-.8-.6l-10.6-35.5c-.2-.8-1.3-.8-1.5,0l-10.6,35.5c-.1.3-.4.6-.8.6h-9.6c-.4,0-.7-.2-.8-.6l-9.2-30.8c-1.4-4.8-3.5-9.4-6.2-13.6s0-1.2.7-1.2h13.8c.5,0,.9.4.8.9-.2,1.1-.2,2.2-.2,3.4,0,2.4.3,4.8,1,7.1l8.2,27.1c.2.8,1.3.8,1.5,0l11.2-37.8c.1-.3.4-.6.8-.6h8.1c.4,0,.7.2.8.6l11.3,38c.2.8,1.3.8,1.5,0l8-26.8c1-3.5,1.3-7.3.9-10.9s.3-.9.8-.9h6Z"/>
      <path class="cls-1" d="M319.9,43.9c0,13.5-8.9,24.4-25.6,24.4s-25.6-10.9-25.6-24.4,8.9-24.4,25.6-24.4,25.6,10.9,25.6,24.4ZM301.6,64.2c8.4-3,11.4-13.2,7-25.4-4.7-12.9-13.3-18-21.7-14.9-8.4,3-11.4,13.1-6.9,25.3s13.4,18,21.8,14.9h-.1Z"/>
      <path class="cls-1" d="M384.8,66.8l.3.3h-15.9l.3-.3c.7-1,2.5-4.1,2.5-10v-20.2c0-.9-1.2-1.1-1.5-.3l-12.5,30.3c-.1.3-.4.5-.7.5h-10c-.3,0-.6-.2-.7-.5l-14.4-34.8c-.3-.8-1.5-.6-1.5.3v24.8c0,5.9,1.8,9,2.5,10l.3.3h-8.5l.3-.3c.7-1,2.5-4.1,2.5-10v-25.8c0-4.7-1.2-7.6-2-9.1s.1-1.2.7-1.2h11.8c.3,0,.6.2.7.5l16.6,40.2c.3.7,1.2.7,1.5,0l16.6-40.2c.1-.3.4-.5.7-.5h9.3c.6,0,1,.7.7,1.2-.8,1.5-2,4.4-2,9.1v25.8c0,5.9,1.8,9,2.5,10Z"/>
      <path class="cls-1" d="M493.2,20.8c.6,0,1,.7.7,1.2-.8,1.5-2,4.4-2,9.1v35.2c0,.4-.4.8-.8.8h-4.7c-1.6,0-3.1-.7-4.1-2l-29.4-38c-.5-.6-1.4-.3-1.4.5v29.3c0,5.9,1.8,9,2.5,10l.3.3h-8.5l.3-.3c.7-1,2.5-4.1,2.5-10v-25.8c0-4.7-1.2-7.6-2-9.1s.1-1.2.7-1.2h11.3c1.6,0,3.1.7,4.1,2l24.9,32.3c.5.6,1.4.3,1.4-.5v-23.5c0-4.7-1.2-7.6-2-9.1s.1-1.2.7-1.2h5.5Z"/>
      <path class="cls-1" d="M288.5,44.6c2.3,1,4.1,2.8,5.1,5.1s1.2.7,1.5,0c1-2.3,2.8-4.1,5.1-5.1s.7-1.2,0-1.5c-2.3-1-4.1-2.8-5.1-5.1s-1.2-.7-1.5,0c-1,2.3-2.8,4.1-5.1,5.1s-.7,1.2,0,1.5Z"/>
      <path class="cls-1" d="M448.5,75.6c-2.7-2-5.1-4.5-7.1-7.2l-10.1-20.6h0s-12.8-26.5-12.8-26.5c-.1-.3-.4-.5-.7-.5h-9.7c-.6,0-.9.6-.7,1.1,1.4,3.5,1.2,7.4-.4,10.8l-9.9,20.6c-2.2,4.5-4.9,8.7-8.2,12.5-.5.5,0,1.3.6,1.3h6c.5,0,.8-.4.8-.8,0-3.1.6-6.2,1.9-9l.8-1.5c.1-.3.4-.4.7-.4h23.3c.3,0,.6.2.8.5,0,0,0,0,0,.1v.3c.1,0,7.1,14.6,7.1,14.6,0,0,0,0,0,.1l.6,1.1s0,0,0,.1c2.2,3,5.7,4.8,9.5,4.8h7.1c.8,0,1.1-1,.5-1.4ZM420.8,52.4h-19c-.6,0-1-.6-.7-1.2l9.6-19.7c.3-.6,1.2-.6,1.4,0l9.4,19.7c.3.5-.1,1.2-.7,1.2Z"/>
    </g>
  </g>
</svg>